<mxfile host="app.diagrams.net" agent="Mozilla/5.0 (Windows NT 10.0; Win64; x64) AppleWebKit/537.36 (KHTML, like Gecko) Chrome/128.0.0.0 Safari/537.36" version="24.7.7">
  <diagram name="Page-1" id="2261PH8Z9EJJNpethrZJ">
    <mxGraphModel dx="2950" dy="1060" grid="1" gridSize="10" guides="1" tooltips="1" connect="1" arrows="1" fold="1" page="1" pageScale="1" pageWidth="850" pageHeight="1100" math="0" shadow="0">
      <root>
        <mxCell id="0" />
        <mxCell id="1" parent="0" />
        <mxCell id="-7jSWL6eJSZ1970H9pZF-1" value="Nutritional_Food_Database Application" style="shape=umlFrame;whiteSpace=wrap;html=1;pointerEvents=0;width=180;height=30;" parent="1" vertex="1">
          <mxGeometry x="150" y="150" width="1020" height="740" as="geometry" />
        </mxCell>
        <mxCell id="-7jSWL6eJSZ1970H9pZF-11" style="rounded=0;orthogonalLoop=1;jettySize=auto;html=1;exitX=1;exitY=0.3333333333333333;exitDx=0;exitDy=0;exitPerimeter=0;entryX=0;entryY=0.5;entryDx=0;entryDy=0;" parent="1" source="-7jSWL6eJSZ1970H9pZF-2" target="-7jSWL6eJSZ1970H9pZF-8" edge="1">
          <mxGeometry relative="1" as="geometry" />
        </mxCell>
        <mxCell id="-7jSWL6eJSZ1970H9pZF-12" style="rounded=0;orthogonalLoop=1;jettySize=auto;html=1;exitX=1;exitY=0.3333333333333333;exitDx=0;exitDy=0;exitPerimeter=0;entryX=0;entryY=0.5;entryDx=0;entryDy=0;" parent="1" source="-7jSWL6eJSZ1970H9pZF-2" target="-7jSWL6eJSZ1970H9pZF-7" edge="1">
          <mxGeometry relative="1" as="geometry" />
        </mxCell>
        <mxCell id="-7jSWL6eJSZ1970H9pZF-13" style="rounded=0;orthogonalLoop=1;jettySize=auto;html=1;exitX=1;exitY=0.3333333333333333;exitDx=0;exitDy=0;exitPerimeter=0;entryX=0;entryY=0.5;entryDx=0;entryDy=0;" parent="1" source="-7jSWL6eJSZ1970H9pZF-2" target="-7jSWL6eJSZ1970H9pZF-6" edge="1">
          <mxGeometry relative="1" as="geometry" />
        </mxCell>
        <mxCell id="-7jSWL6eJSZ1970H9pZF-14" style="rounded=0;orthogonalLoop=1;jettySize=auto;html=1;exitX=1;exitY=0.3333333333333333;exitDx=0;exitDy=0;exitPerimeter=0;entryX=0;entryY=0.5;entryDx=0;entryDy=0;" parent="1" source="-7jSWL6eJSZ1970H9pZF-2" target="-7jSWL6eJSZ1970H9pZF-5" edge="1">
          <mxGeometry relative="1" as="geometry" />
        </mxCell>
        <mxCell id="-7jSWL6eJSZ1970H9pZF-45" style="rounded=0;orthogonalLoop=1;jettySize=auto;html=1;exitX=1;exitY=0.3333333333333333;exitDx=0;exitDy=0;exitPerimeter=0;entryX=0;entryY=0.5;entryDx=0;entryDy=0;" parent="1" source="-7jSWL6eJSZ1970H9pZF-2" target="-7jSWL6eJSZ1970H9pZF-44" edge="1">
          <mxGeometry relative="1" as="geometry" />
        </mxCell>
        <mxCell id="-7jSWL6eJSZ1970H9pZF-2" value="User" style="shape=umlActor;verticalLabelPosition=bottom;verticalAlign=top;html=1;" parent="1" vertex="1">
          <mxGeometry x="-80" y="470" width="80" height="160" as="geometry" />
        </mxCell>
        <mxCell id="-7jSWL6eJSZ1970H9pZF-35" style="rounded=0;orthogonalLoop=1;jettySize=auto;html=1;exitX=0;exitY=0.3333333333333333;exitDx=0;exitDy=0;exitPerimeter=0;" parent="1" source="-7jSWL6eJSZ1970H9pZF-4" target="-7jSWL6eJSZ1970H9pZF-15" edge="1">
          <mxGeometry relative="1" as="geometry" />
        </mxCell>
        <mxCell id="-7jSWL6eJSZ1970H9pZF-40" style="rounded=0;orthogonalLoop=1;jettySize=auto;html=1;exitX=0;exitY=0.3333333333333333;exitDx=0;exitDy=0;exitPerimeter=0;entryX=1;entryY=0.5;entryDx=0;entryDy=0;" parent="1" source="-7jSWL6eJSZ1970H9pZF-4" target="-7jSWL6eJSZ1970H9pZF-8" edge="1">
          <mxGeometry relative="1" as="geometry" />
        </mxCell>
        <mxCell id="-7jSWL6eJSZ1970H9pZF-4" value="System" style="shape=umlActor;verticalLabelPosition=bottom;verticalAlign=top;html=1;" parent="1" vertex="1">
          <mxGeometry x="1400" y="240" width="80" height="160" as="geometry" />
        </mxCell>
        <mxCell id="-7jSWL6eJSZ1970H9pZF-30" style="edgeStyle=orthogonalEdgeStyle;rounded=0;orthogonalLoop=1;jettySize=auto;html=1;exitX=1;exitY=0.5;exitDx=0;exitDy=0;entryX=0;entryY=0.5;entryDx=0;entryDy=0;dashed=1;" parent="1" source="-7jSWL6eJSZ1970H9pZF-5" target="-7jSWL6eJSZ1970H9pZF-15" edge="1">
          <mxGeometry relative="1" as="geometry" />
        </mxCell>
        <mxCell id="-7jSWL6eJSZ1970H9pZF-5" value="Search for food item" style="ellipse;whiteSpace=wrap;html=1;" parent="1" vertex="1">
          <mxGeometry x="440" y="340" width="140" height="70" as="geometry" />
        </mxCell>
        <mxCell id="-7jSWL6eJSZ1970H9pZF-6" value="&lt;p class=&quot;MsoNormal&quot;&gt;Search using range filter&lt;/p&gt;" style="ellipse;whiteSpace=wrap;html=1;" parent="1" vertex="1">
          <mxGeometry x="620" y="200" width="140" height="70" as="geometry" />
        </mxCell>
        <mxCell id="-7jSWL6eJSZ1970H9pZF-7" value="&lt;p class=&quot;MsoNormal&quot;&gt;Search using level filter&lt;/p&gt;" style="ellipse;whiteSpace=wrap;html=1;" parent="1" vertex="1">
          <mxGeometry x="620" y="490" width="140" height="70" as="geometry" />
        </mxCell>
        <mxCell id="-7jSWL6eJSZ1970H9pZF-8" value="View nutrition breakdown" style="ellipse;whiteSpace=wrap;html=1;" parent="1" vertex="1">
          <mxGeometry x="620" y="760" width="140" height="70" as="geometry" />
        </mxCell>
        <mxCell id="-7jSWL6eJSZ1970H9pZF-15" value="Display results" style="ellipse;whiteSpace=wrap;html=1;" parent="1" vertex="1">
          <mxGeometry x="900" y="340" width="140" height="70" as="geometry" />
        </mxCell>
        <mxCell id="-7jSWL6eJSZ1970H9pZF-28" style="rounded=0;orthogonalLoop=1;jettySize=auto;html=1;exitX=1;exitY=0.5;exitDx=0;exitDy=0;entryX=0.273;entryY=0.964;entryDx=0;entryDy=0;entryPerimeter=0;dashed=1;" parent="1" source="-7jSWL6eJSZ1970H9pZF-7" target="-7jSWL6eJSZ1970H9pZF-15" edge="1">
          <mxGeometry relative="1" as="geometry" />
        </mxCell>
        <mxCell id="-7jSWL6eJSZ1970H9pZF-29" value="&amp;lt;&amp;lt;Includes&amp;gt;&amp;gt;" style="text;html=1;align=center;verticalAlign=middle;resizable=0;points=[];autosize=1;strokeColor=none;fillColor=none;" parent="1" vertex="1">
          <mxGeometry x="760" y="430" width="100" height="30" as="geometry" />
        </mxCell>
        <mxCell id="-7jSWL6eJSZ1970H9pZF-31" value="&amp;lt;&amp;lt;Includes&amp;gt;&amp;gt;" style="text;html=1;align=center;verticalAlign=middle;resizable=0;points=[];autosize=1;strokeColor=none;fillColor=none;" parent="1" vertex="1">
          <mxGeometry x="680" y="370" width="100" height="30" as="geometry" />
        </mxCell>
        <mxCell id="-7jSWL6eJSZ1970H9pZF-32" style="rounded=0;orthogonalLoop=1;jettySize=auto;html=1;exitX=1;exitY=0.5;exitDx=0;exitDy=0;entryX=0.286;entryY=0;entryDx=0;entryDy=0;entryPerimeter=0;dashed=1;" parent="1" source="-7jSWL6eJSZ1970H9pZF-6" target="-7jSWL6eJSZ1970H9pZF-15" edge="1">
          <mxGeometry relative="1" as="geometry" />
        </mxCell>
        <mxCell id="-7jSWL6eJSZ1970H9pZF-33" value="&amp;lt;&amp;lt;Includes&amp;gt;&amp;gt;" style="text;html=1;align=center;verticalAlign=middle;resizable=0;points=[];autosize=1;strokeColor=none;fillColor=none;" parent="1" vertex="1">
          <mxGeometry x="750" y="270" width="100" height="30" as="geometry" />
        </mxCell>
        <mxCell id="-7jSWL6eJSZ1970H9pZF-36" style="rounded=0;orthogonalLoop=1;jettySize=auto;html=1;exitX=0;exitY=0.3333333333333333;exitDx=0;exitDy=0;exitPerimeter=0;entryX=0.971;entryY=0.703;entryDx=0;entryDy=0;entryPerimeter=0;" parent="1" source="-7jSWL6eJSZ1970H9pZF-4" target="-7jSWL6eJSZ1970H9pZF-7" edge="1">
          <mxGeometry relative="1" as="geometry" />
        </mxCell>
        <mxCell id="-7jSWL6eJSZ1970H9pZF-37" style="rounded=0;orthogonalLoop=1;jettySize=auto;html=1;exitX=0;exitY=0.3333333333333333;exitDx=0;exitDy=0;exitPerimeter=0;entryX=0.937;entryY=0.275;entryDx=0;entryDy=0;entryPerimeter=0;" parent="1" source="-7jSWL6eJSZ1970H9pZF-4" target="-7jSWL6eJSZ1970H9pZF-6" edge="1">
          <mxGeometry relative="1" as="geometry" />
        </mxCell>
        <mxCell id="-7jSWL6eJSZ1970H9pZF-39" style="rounded=0;orthogonalLoop=1;jettySize=auto;html=1;exitX=0;exitY=0.3333333333333333;exitDx=0;exitDy=0;exitPerimeter=0;entryX=0.954;entryY=0.258;entryDx=0;entryDy=0;entryPerimeter=0;" parent="1" source="-7jSWL6eJSZ1970H9pZF-4" target="-7jSWL6eJSZ1970H9pZF-5" edge="1">
          <mxGeometry relative="1" as="geometry" />
        </mxCell>
        <mxCell id="-7jSWL6eJSZ1970H9pZF-44" value="Use weight calculator" style="ellipse;whiteSpace=wrap;html=1;" parent="1" vertex="1">
          <mxGeometry x="620" y="600" width="140" height="70" as="geometry" />
        </mxCell>
        <mxCell id="uWtG_uVFtxl2AVF02zGx-2" style="rounded=0;orthogonalLoop=1;jettySize=auto;html=1;exitX=1;exitY=0.5;exitDx=0;exitDy=0;entryX=0.5;entryY=1;entryDx=0;entryDy=0;dashed=1;" parent="1" source="-7jSWL6eJSZ1970H9pZF-44" target="-7jSWL6eJSZ1970H9pZF-15" edge="1">
          <mxGeometry relative="1" as="geometry">
            <mxPoint x="780" y="630" as="sourcePoint" />
            <mxPoint x="958" y="512" as="targetPoint" />
          </mxGeometry>
        </mxCell>
        <mxCell id="uWtG_uVFtxl2AVF02zGx-3" value="&amp;lt;&amp;lt;Includes&amp;gt;&amp;gt;" style="text;html=1;align=center;verticalAlign=middle;resizable=0;points=[];autosize=1;strokeColor=none;fillColor=none;" parent="1" vertex="1">
          <mxGeometry x="830" y="560" width="100" height="30" as="geometry" />
        </mxCell>
      </root>
    </mxGraphModel>
  </diagram>
</mxfile>
